# xmcd
#
# Track frame offsets:
#	150
#	15772
#	30515
#	42987
#	60832
#	79350
#	93485
#	109360
#	124665
#	143237
#
# Disc length: 2118 seconds
#
# Revision: 0
# Processed by: cddbd v1.5.2PL0 Copyright (c) Steve Scherf et al.
# Submitted via: EasyCDDAExtractor 12.0.6 .1
#
DISCID=7708440a
DTITLE=李翊君 - 精選輯1-萍聚
DYEAR=1990
DGENRE=Pop
TTITLE0=離別的歌
TTITLE1=萍聚
TTITLE2=小木船
TTITLE3=今夜的心情
TTITLE4=盼望
TTITLE5=排排坐
TTITLE6=請你帶走
TTITLE7=冷井情深
TTITLE8=有你的日記
TTITLE9=離別的歌(kala)
EXTD=
EXTT0=
EXTT1=
EXTT2=
EXTT3=
EXTT4=
EXTT5=
EXTT6=
EXTT7=
EXTT8=
EXTT9=
PLAYORDER=
